PathFileType	4	(X/Y/Z)	SUBJ82_0_static_RCNL2025.trc
DataRate	CameraRate	NumFrames	NumMarkers	Units	OrigDataRate	OrigDataStartFrame	OrigNumFrames
100	100	7	25	mm	100	14	82
Frame#	Time	R_Shoulder			L_Shoulder			C7			J_Notch			R_Elbow			L_Elbow			R_Wrist			L_Wrist			R_Asis			L_Asis			Sacral			Thoracic			Sternum			R_Thigh_Lateral			R_Knee_Lateral			R_Shank_Lateral			R_Ankle_Lateral			R_Heel			R_Toe			L_Thigh_Lateral			L_Knee_Lateral			L_Shank_Lateral			L_Ankle_Lateral			L_Heel			L_Toe		
		X1	Y1	Z1	X2	Y2	Z2	X3	Y3	Z3	X4	Y4	Z4	X5	Y5	Z5	X6	Y6	Z6	X7	Y7	Z7	X8	Y8	Z8	X9	Y9	Z9	X10	Y10	Z10	X11	Y11	Z11	X12	Y12	Z12	X13	Y13	Z13	X14	Y14	Z14	X15	Y15	Z15	X16	Y16	Z16	X17	Y17	Z17	X18	Y18	Z18	X19	Y19	Z19	X20	Y20	Z20	X21	Y21	Z21	X22	Y22	Z22	X23	Y23	Z23	X24	Y24	Z24	X25	Y25	Z25
14	0.13000000	-281.929657	1455.012573	-2.696408	-256.940186	1472.380127	-392.513550	-324.210144	1526.807983	-194.736923	-191.299210	1422.635864	-194.212082	-309.412872	1186.815674	188.698471	-274.470459	1203.152466	-595.970459	-234.166634	970.704529	314.067566	-209.300919	982.710999	-713.321075	-189.815414	1000.394592	-56.399704	-179.402237	1007.111206	-326.750702	-364.937836	1029.168213	-207.971085	-395.895630	1290.355469	-212.686401	-159.493454	1242.817017	-197.000931	-288.914215	574.833191	-21.104473	-300.902679	488.899231	-71.163460	-337.684814	265.460693	-11.098358	-341.102783	79.556412	-105.453293	-383.175598	46.471546	-148.205795	-204.144302	51.366222	-124.693420	-312.858307	573.012085	-372.506592	-319.364319	497.035706	-328.340820	-330.321503	265.567841	-365.678711	-335.119781	74.115959	-298.589294	-374.737732	52.384918	-246.406693	-192.050308	46.198399	-269.129456
15	0.14000000	-281.660004	1455.020874	-2.755797	-256.703064	1472.347656	-392.592621	-323.944550	1526.839722	-194.805801	-191.050415	1422.630859	-194.136002	-309.231384	1186.764893	188.676376	-274.253754	1203.087646	-595.961304	-234.043343	970.686920	314.040329	-209.158501	982.558014	-713.221191	-189.573471	1000.372314	-56.445190	-179.264114	1007.091675	-326.733765	-364.805664	1029.185791	-207.936996	-395.724182	1290.395996	-212.710754	-159.291641	1242.720947	-196.944046	-288.552185	574.724182	-21.365025	-300.885498	488.902252	-71.160049	-337.638580	265.529266	-11.092010	-340.931763	79.608238	-105.469254	-383.144928	46.453987	-148.225067	-204.146652	51.382084	-124.691254	-312.770691	572.958313	-372.440186	-319.307800	496.972290	-328.345154	-330.229706	265.581116	-365.689331	-335.174652	74.107742	-298.555573	-374.725159	52.265156	-246.472794	-192.044540	46.179497	-269.088684
16	0.15000000	-281.503357	1455.002930	-2.765726	-256.545715	1472.346558	-392.568146	-323.780853	1526.809570	-194.821564	-190.834274	1422.625122	-194.176315	-309.109161	1186.849854	188.720093	-274.075348	1202.993286	-595.897095	-233.897026	970.680511	314.072433	-209.012863	982.517059	-713.210052	-189.423813	1000.304443	-56.442356	-178.998215	1007.029114	-326.719452	-364.650665	1029.228882	-207.931519	-395.516144	1290.369629	-212.612045	-159.111374	1242.675903	-196.950424	-288.691437	574.791260	-21.118132	-300.779053	488.841583	-71.114143	-337.586151	265.445435	-11.179815	-340.904327	79.606491	-105.475296	-383.143097	46.433922	-148.232285	-204.124680	51.341408	-124.721352	-312.564545	572.962036	-372.510773	-319.226013	496.970825	-328.445831	-330.159851	265.548279	-365.716919	-335.140930	74.099739	-298.561768	-374.630646	52.308319	-246.411499	-191.977356	46.083504	-269.057739
17	0.16000000	-281.368347	1454.956177	-2.827700	-256.250244	1472.295654	-392.600922	-323.381744	1526.641602	-194.852737	-190.719772	1422.583008	-194.099838	-308.948212	1186.804565	188.727478	-273.886749	1202.954956	-595.846985	-233.770149	970.691895	314.089233	-208.902451	982.382996	-713.146423	-189.242920	1000.270386	-56.448021	-178.913940	1006.963928	-326.793335	-364.464050	1029.261719	-208.070786	-395.347076	1290.410400	-212.633392	-158.985077	1242.652466	-196.954956	-288.727234	574.802002	-21.091885	-300.731720	488.951935	-71.137833	-337.550568	265.470032	-11.209083	-341.151489	79.511795	-105.447441	-383.253387	46.520576	-148.265305	-204.119720	51.337337	-124.725334	-312.508850	572.963318	-372.527008	-319.179810	496.934845	-328.406799	-330.101837	265.528046	-365.754791	-335.122620	74.122665	-298.582520	-374.657928	52.220684	-246.517532	-191.970245	46.076481	-269.053986
18	0.17000000	-281.253235	1454.928833	-2.769572	-256.101410	1472.261719	-392.577423	-323.451355	1526.807129	-194.841080	-190.546783	1422.517456	-194.143326	-308.887848	1186.782471	188.691803	-273.721405	1202.903931	-595.847351	-233.704048	970.694733	314.060257	-208.776352	982.389893	-713.062225	-189.052338	1000.240540	-56.445759	-178.716263	1007.031738	-326.811462	-364.265198	1029.236572	-207.959305	-395.217834	1290.408447	-212.585266	-158.784805	1242.638916	-197.017151	-288.605042	574.794312	-21.074490	-300.729492	488.854126	-71.163910	-337.575287	265.507538	-11.178905	-340.961090	79.623924	-105.459785	-383.181458	46.465645	-148.206802	-204.121201	51.338676	-124.724014	-312.477692	572.987122	-372.532501	-319.076904	496.955811	-328.350677	-330.113800	265.558807	-365.721558	-335.140015	74.139389	-298.565582	-374.709595	52.294838	-246.457916	-192.061646	46.140743	-269.072174
19	0.18000000	-281.043304	1454.901245	-2.800058	-255.935883	1472.221313	-392.570282	-323.178162	1526.784790	-194.787628	-190.355957	1422.505493	-194.158585	-308.741272	1186.764282	188.725220	-273.578857	1202.906616	-595.815979	-233.587166	970.688934	314.086227	-208.611679	982.271423	-712.953613	-188.920334	1000.212158	-56.499367	-178.605347	1006.971985	-326.809082	-364.139313	1029.338501	-207.909943	-395.078186	1290.400146	-212.557159	-158.819061	1242.522217	-196.966675	-288.344055	574.635437	-21.403477	-300.699615	488.813599	-71.164474	-337.589966	265.468323	-11.167030	-340.915314	79.617882	-105.483047	-383.224915	46.480267	-148.122528	-204.177109	51.290501	-124.688766	-312.373871	572.967773	-372.507874	-319.062805	496.994904	-328.380310	-330.063171	265.562042	-365.690887	-335.092804	74.097824	-298.494995	-374.711182	52.304993	-246.297012	-191.977142	46.096989	-269.061584
20	0.19000000	-280.818115	1454.853760	-2.787006	-255.712524	1472.221802	-392.615784	-323.024261	1526.885010	-194.826859	-190.224945	1422.444824	-194.121918	-308.527771	1186.816162	188.685242	-273.401886	1202.803955	-595.725769	-233.435249	970.652039	314.142136	-208.478271	982.225403	-712.881683	-188.781525	999.995117	-56.269009	-178.438507	1006.887512	-326.832397	-363.987671	1029.398926	-207.905533	-394.788147	1290.440186	-212.530518	-158.669693	1242.500732	-196.979675	-288.374115	574.757812	-21.265615	-300.606903	488.859558	-71.229805	-337.547577	265.480652	-11.061777	-340.921112	79.637573	-105.466003	-383.109558	46.475552	-148.221054	-204.088715	51.321178	-124.754684	-312.307831	572.985474	-372.518402	-318.947815	496.987183	-328.414276	-329.992767	265.521118	-365.739929	-335.129425	74.154930	-298.558258	-374.647339	52.345932	-246.406769	-191.955963	46.117851	-269.082703
